<svg width="163" height="38" viewBox="0 0 163 38" fill="none" xmlns="http://www.w3.org/2000/svg">
<g clip-path="url(#clip0_30_2)">
<rect x="90" width="73" height="38" rx="5" fill="#F7961E"/>
<path d="M3.112 31C2.368 31 1.792 30.796 1.384 30.388C0.976 29.956 0.772 29.368 0.772 28.624V7.852C0.772 7.084 0.964 6.508 1.348 6.124C1.756 5.716 2.332 5.512 3.076 5.512C3.82 5.512 4.384 5.716 4.768 6.124C5.176 6.508 5.38 7.084 5.38 7.852V27.076H15.82C16.468 27.076 16.96 27.244 17.296 27.58C17.656 27.916 17.836 28.396 17.836 29.02C17.836 29.644 17.656 30.136 17.296 30.496C16.96 30.832 16.468 31 15.82 31H3.112ZM22.7868 31.252C22.0668 31.252 21.5148 31.036 21.1308 30.604C20.7468 30.172 20.5548 29.572 20.5548 28.804V15.592C20.5548 14.8 20.7468 14.2 21.1308 13.792C21.5148 13.36 22.0668 13.144 22.7868 13.144C23.5068 13.144 24.0588 13.36 24.4428 13.792C24.8508 14.2 25.0548 14.8 25.0548 15.592V28.804C25.0548 29.572 24.8628 30.172 24.4788 30.604C24.0948 31.036 23.5308 31.252 22.7868 31.252ZM22.7868 9.796C21.9468 9.796 21.2868 9.592 20.8068 9.184C20.3508 8.752 20.1228 8.164 20.1228 7.42C20.1228 6.652 20.3508 6.064 20.8068 5.656C21.2868 5.248 21.9468 5.044 22.7868 5.044C23.6508 5.044 24.3108 5.248 24.7668 5.656C25.2228 6.064 25.4508 6.652 25.4508 7.42C25.4508 8.164 25.2228 8.752 24.7668 9.184C24.3108 9.592 23.6508 9.796 22.7868 9.796ZM31.9626 31.288C31.2426 31.288 30.6906 31.096 30.3066 30.712C29.9226 30.304 29.7306 29.728 29.7306 28.984V15.376C29.7306 14.632 29.9226 14.068 30.3066 13.684C30.6906 13.3 31.2306 13.108 31.9266 13.108C32.6226 13.108 33.1626 13.3 33.5466 13.684C33.9306 14.068 34.1226 14.632 34.1226 15.376V17.824L33.7266 16.924C34.2546 15.652 35.0706 14.692 36.1746 14.044C37.3026 13.372 38.5746 13.036 39.9906 13.036C41.4066 13.036 42.5706 13.3 43.4826 13.828C44.3946 14.356 45.0786 15.16 45.5346 16.24C45.9906 17.296 46.2186 18.64 46.2186 20.272V28.984C46.2186 29.728 46.0266 30.304 45.6426 30.712C45.2586 31.096 44.7066 31.288 43.9866 31.288C43.2666 31.288 42.7026 31.096 42.2946 30.712C41.9106 30.304 41.7186 29.728 41.7186 28.984V20.488C41.7186 19.12 41.4546 18.124 40.9266 17.5C40.4226 16.876 39.6306 16.564 38.5506 16.564C37.2306 16.564 36.1746 16.984 35.3826 17.824C34.6146 18.64 34.2306 19.732 34.2306 21.1V28.984C34.2306 30.52 33.4746 31.288 31.9626 31.288ZM53.0212 31.288C52.3012 31.288 51.7492 31.096 51.3652 30.712C50.9812 30.304 50.7892 29.728 50.7892 28.984V7.6C50.7892 6.856 50.9812 6.292 51.3652 5.908C51.7492 5.524 52.3012 5.332 53.0212 5.332C53.7412 5.332 54.2932 5.524 54.6772 5.908C55.0852 6.292 55.2892 6.856 55.2892 7.6V20.884H55.3612L61.3012 14.62C61.7812 14.14 62.2012 13.768 62.5612 13.504C62.9212 13.24 63.4132 13.108 64.0372 13.108C64.6612 13.108 65.1292 13.276 65.4412 13.612C65.7772 13.924 65.9452 14.308 65.9452 14.764C65.9452 15.22 65.7292 15.676 65.2972 16.132L59.0332 22.756V20.884L65.9092 28.3C66.3412 28.756 66.5332 29.224 66.4852 29.704C66.4612 30.16 66.2692 30.544 65.9092 30.856C65.5492 31.144 65.0932 31.288 64.5412 31.288C63.8692 31.288 63.3292 31.156 62.9212 30.892C62.5372 30.628 62.1052 30.232 61.6252 29.704L55.3612 23.152H55.2892V28.984C55.2892 30.52 54.5332 31.288 53.0212 31.288ZM76.2528 31.36C75.2208 31.36 74.1288 31.252 72.9768 31.036C71.8248 30.82 70.7928 30.448 69.8808 29.92C69.4968 29.68 69.2208 29.404 69.0528 29.092C68.9088 28.756 68.8488 28.432 68.8728 28.12C68.9208 27.784 69.0408 27.496 69.2328 27.256C69.4488 27.016 69.7128 26.86 70.0248 26.788C70.3608 26.716 70.7208 26.776 71.1048 26.968C72.0648 27.424 72.9648 27.748 73.8048 27.94C74.6448 28.108 75.4728 28.192 76.2888 28.192C77.4408 28.192 78.2928 28 78.8448 27.616C79.4208 27.208 79.7088 26.68 79.7088 26.032C79.7088 25.48 79.5168 25.06 79.1328 24.772C78.7728 24.46 78.2208 24.232 77.4768 24.088L73.8768 23.404C72.3888 23.116 71.2488 22.576 70.4568 21.784C69.6888 20.968 69.3048 19.924 69.3048 18.652C69.3048 17.5 69.6168 16.504 70.2408 15.664C70.8888 14.824 71.7768 14.176 72.9048 13.72C74.0328 13.264 75.3288 13.036 76.7928 13.036C77.8488 13.036 78.8328 13.156 79.7448 13.396C80.6808 13.612 81.5808 13.96 82.4448 14.44C82.8048 14.632 83.0448 14.884 83.1648 15.196C83.3088 15.508 83.3448 15.832 83.2728 16.168C83.2008 16.48 83.0568 16.768 82.8408 17.032C82.6248 17.272 82.3488 17.428 82.0128 17.5C81.7008 17.548 81.3408 17.476 80.9328 17.284C80.1888 16.9 79.4688 16.624 78.7728 16.456C78.1008 16.288 77.4528 16.204 76.8288 16.204C75.6528 16.204 74.7768 16.408 74.2008 16.816C73.6488 17.224 73.3728 17.764 73.3728 18.436C73.3728 18.94 73.5408 19.36 73.8768 19.696C74.2128 20.032 74.7288 20.26 75.4248 20.38L79.0248 21.064C80.5848 21.352 81.7608 21.88 82.5528 22.648C83.3688 23.416 83.7768 24.448 83.7768 25.744C83.7768 27.496 83.0928 28.876 81.7248 29.884C80.3568 30.868 78.5328 31.36 76.2528 31.36ZM99.3923 31.288C98.6723 31.288 98.1203 31.096 97.7363 30.712C97.3523 30.304 97.1603 29.728 97.1603 28.984V7.6C97.1603 6.856 97.3523 6.292 97.7363 5.908C98.1203 5.524 98.6723 5.332 99.3923 5.332C100.112 5.332 100.664 5.524 101.048 5.908C101.456 6.292 101.66 6.856 101.66 7.6V16.924H101.156C101.684 15.652 102.5 14.692 103.604 14.044C104.732 13.372 106.004 13.036 107.42 13.036C108.836 13.036 110 13.3 110.912 13.828C111.824 14.356 112.508 15.16 112.964 16.24C113.42 17.296 113.648 18.64 113.648 20.272V28.984C113.648 29.728 113.456 30.304 113.072 30.712C112.688 31.096 112.136 31.288 111.416 31.288C110.696 31.288 110.132 31.096 109.724 30.712C109.34 30.304 109.148 29.728 109.148 28.984V20.488C109.148 19.12 108.884 18.124 108.356 17.5C107.852 16.876 107.06 16.564 105.98 16.564C104.66 16.564 103.604 16.984 102.812 17.824C102.044 18.64 101.66 19.732 101.66 21.1V28.984C101.66 30.52 100.904 31.288 99.3923 31.288ZM124.591 31.36C123.127 31.36 121.915 31.096 120.955 30.568C119.995 30.016 119.275 29.2 118.795 28.12C118.339 27.04 118.111 25.696 118.111 24.088V15.376C118.111 14.608 118.303 14.044 118.687 13.684C119.071 13.3 119.623 13.108 120.343 13.108C121.063 13.108 121.615 13.3 121.999 13.684C122.407 14.044 122.611 14.608 122.611 15.376V24.16C122.611 25.408 122.863 26.332 123.367 26.932C123.871 27.532 124.675 27.832 125.779 27.832C126.979 27.832 127.963 27.424 128.731 26.608C129.499 25.768 129.883 24.664 129.883 23.296V15.376C129.883 14.608 130.075 14.044 130.459 13.684C130.843 13.3 131.395 13.108 132.115 13.108C132.835 13.108 133.387 13.3 133.771 13.684C134.179 14.044 134.383 14.608 134.383 15.376V28.984C134.383 30.52 133.651 31.288 132.187 31.288C131.491 31.288 130.951 31.096 130.567 30.712C130.183 30.304 129.991 29.728 129.991 28.984V26.248L130.495 27.328C129.991 28.624 129.223 29.62 128.191 30.316C127.183 31.012 125.983 31.36 124.591 31.36ZM149.219 31.36C147.731 31.36 146.423 30.988 145.295 30.244C144.191 29.5 143.459 28.504 143.099 27.256L143.495 26.356V28.984C143.495 29.728 143.303 30.304 142.919 30.712C142.535 31.096 141.995 31.288 141.299 31.288C140.579 31.288 140.027 31.096 139.643 30.712C139.259 30.304 139.067 29.728 139.067 28.984V7.6C139.067 6.856 139.259 6.292 139.643 5.908C140.027 5.524 140.579 5.332 141.299 5.332C142.019 5.332 142.571 5.524 142.955 5.908C143.363 6.292 143.567 6.856 143.567 7.6V16.96H143.135C143.519 15.784 144.263 14.836 145.367 14.116C146.471 13.396 147.755 13.036 149.219 13.036C150.779 13.036 152.135 13.408 153.287 14.152C154.439 14.896 155.339 15.952 155.987 17.32C156.635 18.664 156.959 20.284 156.959 22.18C156.959 24.052 156.635 25.684 155.987 27.076C155.339 28.444 154.427 29.5 153.251 30.244C152.099 30.988 150.755 31.36 149.219 31.36ZM147.959 27.94C148.847 27.94 149.627 27.724 150.299 27.292C150.971 26.86 151.487 26.224 151.847 25.384C152.231 24.52 152.423 23.452 152.423 22.18C152.423 20.26 152.015 18.832 151.199 17.896C150.383 16.936 149.303 16.456 147.959 16.456C147.071 16.456 146.291 16.672 145.619 17.104C144.947 17.512 144.419 18.148 144.035 19.012C143.675 19.852 143.495 20.908 143.495 22.18C143.495 24.076 143.903 25.516 144.719 26.5C145.535 27.46 146.615 27.94 147.959 27.94Z" fill="black"/>
</g>
<defs>
<clipPath id="clip0_30_2">
<rect width="163" height="38" fill="white"/>
</clipPath>
</defs>
</svg>
