<svg width="190" height="60" viewBox="0 0 190 60" fill="none" xmlns="http://www.w3.org/2000/svg">
<rect width="190" height="60" fill="black"/>
<rect x="105" y="11" width="73" height="38" rx="5" fill="#F7961E"/>
<path d="M18.112 42C17.368 42 16.792 41.796 16.384 41.388C15.976 40.956 15.772 40.368 15.772 39.624V18.852C15.772 18.084 15.964 17.508 16.348 17.124C16.756 16.716 17.332 16.512 18.076 16.512C18.82 16.512 19.384 16.716 19.768 17.124C20.176 17.508 20.38 18.084 20.38 18.852V38.076H30.82C31.468 38.076 31.96 38.244 32.296 38.58C32.656 38.916 32.836 39.396 32.836 40.02C32.836 40.644 32.656 41.136 32.296 41.496C31.96 41.832 31.468 42 30.82 42H18.112ZM37.7868 42.252C37.0668 42.252 36.5148 42.036 36.1308 41.604C35.7468 41.172 35.5548 40.572 35.5548 39.804V26.592C35.5548 25.8 35.7468 25.2 36.1308 24.792C36.5148 24.36 37.0668 24.144 37.7868 24.144C38.5068 24.144 39.0588 24.36 39.4428 24.792C39.8508 25.2 40.0548 25.8 40.0548 26.592V39.804C40.0548 40.572 39.8628 41.172 39.4788 41.604C39.0948 42.036 38.5308 42.252 37.7868 42.252ZM37.7868 20.796C36.9468 20.796 36.2868 20.592 35.8068 20.184C35.3508 19.752 35.1228 19.164 35.1228 18.42C35.1228 17.652 35.3508 17.064 35.8068 16.656C36.2868 16.248 36.9468 16.044 37.7868 16.044C38.6508 16.044 39.3108 16.248 39.7668 16.656C40.2228 17.064 40.4508 17.652 40.4508 18.42C40.4508 19.164 40.2228 19.752 39.7668 20.184C39.3108 20.592 38.6508 20.796 37.7868 20.796ZM46.9626 42.288C46.2426 42.288 45.6906 42.096 45.3066 41.712C44.9226 41.304 44.7306 40.728 44.7306 39.984V26.376C44.7306 25.632 44.9226 25.068 45.3066 24.684C45.6906 24.3 46.2306 24.108 46.9266 24.108C47.6226 24.108 48.1626 24.3 48.5466 24.684C48.9306 25.068 49.1226 25.632 49.1226 26.376V28.824L48.7266 27.924C49.2546 26.652 50.0706 25.692 51.1746 25.044C52.3026 24.372 53.5746 24.036 54.9906 24.036C56.4066 24.036 57.5706 24.3 58.4826 24.828C59.3946 25.356 60.0786 26.16 60.5346 27.24C60.9906 28.296 61.2186 29.64 61.2186 31.272V39.984C61.2186 40.728 61.0266 41.304 60.6426 41.712C60.2586 42.096 59.7066 42.288 58.9866 42.288C58.2666 42.288 57.7026 42.096 57.2946 41.712C56.9106 41.304 56.7186 40.728 56.7186 39.984V31.488C56.7186 30.12 56.4546 29.124 55.9266 28.5C55.4226 27.876 54.6306 27.564 53.5506 27.564C52.2306 27.564 51.1746 27.984 50.3826 28.824C49.6146 29.64 49.2306 30.732 49.2306 32.1V39.984C49.2306 41.52 48.4746 42.288 46.9626 42.288ZM68.0212 42.288C67.3012 42.288 66.7492 42.096 66.3652 41.712C65.9812 41.304 65.7892 40.728 65.7892 39.984V18.6C65.7892 17.856 65.9812 17.292 66.3652 16.908C66.7492 16.524 67.3012 16.332 68.0212 16.332C68.7412 16.332 69.2932 16.524 69.6772 16.908C70.0852 17.292 70.2892 17.856 70.2892 18.6V31.884H70.3612L76.3012 25.62C76.7812 25.14 77.2012 24.768 77.5612 24.504C77.9212 24.24 78.4132 24.108 79.0372 24.108C79.6612 24.108 80.1292 24.276 80.4412 24.612C80.7772 24.924 80.9452 25.308 80.9452 25.764C80.9452 26.22 80.7292 26.676 80.2972 27.132L74.0332 33.756V31.884L80.9092 39.3C81.3412 39.756 81.5332 40.224 81.4852 40.704C81.4612 41.16 81.2692 41.544 80.9092 41.856C80.5492 42.144 80.0932 42.288 79.5412 42.288C78.8692 42.288 78.3292 42.156 77.9212 41.892C77.5372 41.628 77.1052 41.232 76.6252 40.704L70.3612 34.152H70.2892V39.984C70.2892 41.52 69.5332 42.288 68.0212 42.288ZM91.2528 42.36C90.2208 42.36 89.1288 42.252 87.9768 42.036C86.8248 41.82 85.7928 41.448 84.8808 40.92C84.4968 40.68 84.2208 40.404 84.0528 40.092C83.9088 39.756 83.8488 39.432 83.8728 39.12C83.9208 38.784 84.0408 38.496 84.2328 38.256C84.4488 38.016 84.7128 37.86 85.0248 37.788C85.3608 37.716 85.7208 37.776 86.1048 37.968C87.0648 38.424 87.9648 38.748 88.8048 38.94C89.6448 39.108 90.4728 39.192 91.2888 39.192C92.4408 39.192 93.2928 39 93.8448 38.616C94.4208 38.208 94.7088 37.68 94.7088 37.032C94.7088 36.48 94.5168 36.06 94.1328 35.772C93.7728 35.46 93.2208 35.232 92.4768 35.088L88.8768 34.404C87.3888 34.116 86.2488 33.576 85.4568 32.784C84.6888 31.968 84.3048 30.924 84.3048 29.652C84.3048 28.5 84.6168 27.504 85.2408 26.664C85.8888 25.824 86.7768 25.176 87.9048 24.72C89.0328 24.264 90.3288 24.036 91.7928 24.036C92.8488 24.036 93.8328 24.156 94.7448 24.396C95.6808 24.612 96.5808 24.96 97.4448 25.44C97.8048 25.632 98.0448 25.884 98.1648 26.196C98.3088 26.508 98.3448 26.832 98.2728 27.168C98.2008 27.48 98.0568 27.768 97.8408 28.032C97.6248 28.272 97.3488 28.428 97.0128 28.5C96.7008 28.548 96.3408 28.476 95.9328 28.284C95.1888 27.9 94.4688 27.624 93.7728 27.456C93.1008 27.288 92.4528 27.204 91.8288 27.204C90.6528 27.204 89.7768 27.408 89.2008 27.816C88.6488 28.224 88.3728 28.764 88.3728 29.436C88.3728 29.94 88.5408 30.36 88.8768 30.696C89.2128 31.032 89.7288 31.26 90.4248 31.38L94.0248 32.064C95.5848 32.352 96.7608 32.88 97.5528 33.648C98.3688 34.416 98.7768 35.448 98.7768 36.744C98.7768 38.496 98.0928 39.876 96.7248 40.884C95.3568 41.868 93.5328 42.36 91.2528 42.36Z" fill="white"/>
<path d="M114.392 42.288C113.672 42.288 113.12 42.096 112.736 41.712C112.352 41.304 112.16 40.728 112.16 39.984V18.6C112.16 17.856 112.352 17.292 112.736 16.908C113.12 16.524 113.672 16.332 114.392 16.332C115.112 16.332 115.664 16.524 116.048 16.908C116.456 17.292 116.66 17.856 116.66 18.6V27.924H116.156C116.684 26.652 117.5 25.692 118.604 25.044C119.732 24.372 121.004 24.036 122.42 24.036C123.836 24.036 125 24.3 125.912 24.828C126.824 25.356 127.508 26.16 127.964 27.24C128.42 28.296 128.648 29.64 128.648 31.272V39.984C128.648 40.728 128.456 41.304 128.072 41.712C127.688 42.096 127.136 42.288 126.416 42.288C125.696 42.288 125.132 42.096 124.724 41.712C124.34 41.304 124.148 40.728 124.148 39.984V31.488C124.148 30.12 123.884 29.124 123.356 28.5C122.852 27.876 122.06 27.564 120.98 27.564C119.66 27.564 118.604 27.984 117.812 28.824C117.044 29.64 116.66 30.732 116.66 32.1V39.984C116.66 41.52 115.904 42.288 114.392 42.288ZM139.591 42.36C138.127 42.36 136.915 42.096 135.955 41.568C134.995 41.016 134.275 40.2 133.795 39.12C133.339 38.04 133.111 36.696 133.111 35.088V26.376C133.111 25.608 133.303 25.044 133.687 24.684C134.071 24.3 134.623 24.108 135.343 24.108C136.063 24.108 136.615 24.3 136.999 24.684C137.407 25.044 137.611 25.608 137.611 26.376V35.16C137.611 36.408 137.863 37.332 138.367 37.932C138.871 38.532 139.675 38.832 140.779 38.832C141.979 38.832 142.963 38.424 143.731 37.608C144.499 36.768 144.883 35.664 144.883 34.296V26.376C144.883 25.608 145.075 25.044 145.459 24.684C145.843 24.3 146.395 24.108 147.115 24.108C147.835 24.108 148.387 24.3 148.771 24.684C149.179 25.044 149.383 25.608 149.383 26.376V39.984C149.383 41.52 148.651 42.288 147.187 42.288C146.491 42.288 145.951 42.096 145.567 41.712C145.183 41.304 144.991 40.728 144.991 39.984V37.248L145.495 38.328C144.991 39.624 144.223 40.62 143.191 41.316C142.183 42.012 140.983 42.36 139.591 42.36ZM164.219 42.36C162.731 42.36 161.423 41.988 160.295 41.244C159.191 40.5 158.459 39.504 158.099 38.256L158.495 37.356V39.984C158.495 40.728 158.303 41.304 157.919 41.712C157.535 42.096 156.995 42.288 156.299 42.288C155.579 42.288 155.027 42.096 154.643 41.712C154.259 41.304 154.067 40.728 154.067 39.984V18.6C154.067 17.856 154.259 17.292 154.643 16.908C155.027 16.524 155.579 16.332 156.299 16.332C157.019 16.332 157.571 16.524 157.955 16.908C158.363 17.292 158.567 17.856 158.567 18.6V27.96H158.135C158.519 26.784 159.263 25.836 160.367 25.116C161.471 24.396 162.755 24.036 164.219 24.036C165.779 24.036 167.135 24.408 168.287 25.152C169.439 25.896 170.339 26.952 170.987 28.32C171.635 29.664 171.959 31.284 171.959 33.18C171.959 35.052 171.635 36.684 170.987 38.076C170.339 39.444 169.427 40.5 168.251 41.244C167.099 41.988 165.755 42.36 164.219 42.36ZM162.959 38.94C163.847 38.94 164.627 38.724 165.299 38.292C165.971 37.86 166.487 37.224 166.847 36.384C167.231 35.52 167.423 34.452 167.423 33.18C167.423 31.26 167.015 29.832 166.199 28.896C165.383 27.936 164.303 27.456 162.959 27.456C162.071 27.456 161.291 27.672 160.619 28.104C159.947 28.512 159.419 29.148 159.035 30.012C158.675 30.852 158.495 31.908 158.495 33.18C158.495 35.076 158.903 36.516 159.719 37.5C160.535 38.46 161.615 38.94 162.959 38.94Z" fill="black"/>
</svg>
